<svg id="Layer_1" data-name="Layer 1" xmlns="http://www.w3.org/2000/svg" viewBox="0 0 291.71 99.28"><defs><style>.cls-1{fill:#432918;}.cls-1,.cls-2{fill-rule:evenodd;}.cls-2{fill:#5ab031;}</style></defs><title>bear logo - vector</title><path class="cls-1" d="M272.36,75.9c14.09-2.5,21.72-14.35,21.72-28,0-21.21-14.87-30.55-34.49-30.55H221V89L194,17.31H165.81L136,94.73H108.39V77.61h29.1V55.76h-29.1V39.15h30.7V17.31H82.59V73.13c-3.93-5.11-10-8.47-17.84-9.46l.47-.27c13.93-5.72,19.92-46.08-21.6-46.08H11.86v99.28H51.63c12.31,0,24.4-3.16,31-11.66v11.66H155l6.86-17.25h35.56l6.45,17.25h42.94V78.4h.25l24.37,38.19h32.14Z" transform="translate(-11.86 -17.31)"/><path class="cls-2" d="M180.27,85.49c4.78-1.66,8.18-7.88,8.75-9.21s-.57-2.26-2.26-4.72a5.38,5.38,0,0,1-1.12-3c0-.74.52-2,1.14-2,.27,0,.61.36,1.12,1.37,2.42,4.92,6.72,4.08,6.72,4.08a19.21,19.21,0,0,0,1.94-6.9,4.24,4.24,0,0,0-1.55-4c-1.06-.86-4.38-1.36-4.42-2.45,0-.4.32-.8,1.85-1.11,3.73-.76,3.64-3.22,2-5.07a8.08,8.08,0,0,0-6.17-2.45,10.09,10.09,0,0,0-7.55,3.41l.56-9.35h-2l.55,9.35a10.07,10.07,0,0,0-7.55-3.41,8.07,8.07,0,0,0-6.16,2.45c-1.63,1.84-1.71,4.31,2,5.07,1.52.3,1.85.7,1.85,1.11,0,1.09-3.37,1.59-4.43,2.45a4.26,4.26,0,0,0-1.55,4,19.11,19.11,0,0,0,1.95,6.9s4.29.84,6.72-4.08c.5-1,.85-1.37,1.11-1.37.62.05,1.14,1.3,1.14,2a5.36,5.36,0,0,1-1.11,3c-1.71,2.46-2.84,3.39-2.28,4.72S175.5,83.83,180.27,85.49Z" transform="translate(-11.86 -17.31)"/></svg>